<?xml version="1.0" encoding="UTF-8"?>
<svg version="1.1" viewBox="0 0 2048 1954" width="523" height="499" xmlns="http://www.w3.org/2000/svg">
<path transform="translate(618,251)" d="m0 0h41l2 4-5 64-3 35-2 21v26l6 16 7 11 8 8 13 8 14 5h25l13-5 10-6 10-9 7-10 5-12 2-10 3-27 3-39 5-56 2-23 24-1h332l2 2 3 43 6 72 2 23 4 20 7 13 9 10 8 6 12 6 11 3h20l13-4 9-5 13-10 7-10 5-10 3-12v-21l-8-100-1-12v-13h31l16 4 10 4 13 9 11 10 9 13 6 12 4 14 11 69 14 85 9 57 11 66 9 58 10 61 12 74 3 22 1 18v68l-2 22-5 33-6 28-8 28-14 39-12 26-16 31-9 15-12 18-8 11-12 16-13 16-12 13-11 12-15 15-11 9-10 9-14 11-19 14-23 15-24 14-26 13-31 13-29 10-23 7-9 2h-6l1-3 11-9 16-15 42-42 11-14 9-10 8-10 13-17 12-17 7-10 15-24 12-20 10-19 11-23 12-25 14-34 12-37 8-29 7-30 6-28 5-31 4-35 3-40v-9l-8 20-14 29-16 31-17 28-13 21-14 21-10 14-10 13-11 14-22 26-13 15-43 43-11 9-11 10-14 11-12 10-17 13-36 24-18 11-23 13-16 9-28 13-22 10-30 12-43 14-43 11-38 8-39 6-38 4-50 3h-54l-61-4-40-4-46-7-28-5-3-2 1-12 14-93 10-67 11-72 12-80 10-67 10-66 11-72 12-81 10-67 10-66 11-72 10-68 7-47 5-17 9-16 9-10 8-8 13-8 12-5 11-3z" fill="#3C4CB4"/>
<path transform="translate(883,4)" d="m0 0h135l21 1 27 4 21 6 19 7 16 8 14 8 15 11 13 11 15 15 9 11 10 14 12 21 9 21 7 24 3 15 4 37 6 80 4 49 2 22v30l-4 8-7 8-10 5-4 1h-11l-12-4-9-8-5-10-3-22-3-41-2-22-2-27-2-24-1-22-4-43-4-20-6-17-8-17-10-16-9-11-13-13-15-11-13-8-20-8-21-6-22-2-93-2h-30l-24 3-19 5-19 8-15 9-13 10-10 9-7 7-10 13-10 17-8 19-5 19-2 12-8 94-6 72-3 32-4 10-8 9-12 6h-15l-9-3-10-9-5-10-1-4v-9l4-50 8-94 4-48 4-25 6-22 6-15 10-21 9-14 8-11 13-16 12-12 11-9 13-10 15-9 16-8 20-8 21-6 14-3z" fill="#3D4DB4"/>
<path transform="translate(721,1551)" d="m0 0h21l13 2 12 4 13 7 10 8 6 5 9 11 9 14 6 14 4 15 1 7v28l-5 21-5 12-8 14-12 14-10 9-11 7-16 7-14 3h-20l-14-3-15-6-14-8-8-6 1 3 2 83v13l-51 1-4-2v-271l1-1h53l1 3-1 9 11-8 11-5 13-3zm-10 52-10 3-9 5-10 9-7 10-4 12-1 11 3 16 6 11 10 11 10 6 11 4h19l14-5 12-9 9-12 4-11 1-6v-14l-3-10-6-11-6-7-11-8-10-4-5-1z" fill="#DB332F"/>
<path transform="translate(1101,1457)" d="m0 0h53l1 1v111l7-4 10-6 11-5 9-2h27l12 4 11 6 11 10 8 11 5 10 4 16v139l-1 1h-53l-1-3-1-127-3-8-3-4v-2l-5-2-6-2-13 1-10 5-9 8-6 10-3 12-1 111-1 1h-53l-1-2v-289z" fill="#3F4FB5"/>
<path transform="translate(172,1457)" d="m0 0h54l1 1-1 111 15-9 10-5 10-3 9-1h15l14 3 12 6 12 10 9 12 6 12 3 12 1 141-1 1h-54l-1-127-3-10-3-4v-2l-4-2-5-2h-13l-9 3-9 7-6 7-5 11-1 5-1 31v82l-1 1h-53l-1-1z" fill="#DB322E"/>
<path transform="translate(935,1552)" d="m0 0h28l15 4 16 8 11 8 5 4-3-19 1-1h52l2 1v191l-1 1h-53l-1-1-1-10-11 8-10 4-14 3-11 1h-18l-17-3-15-6-11-7-12-11-9-10-7-11-6-12-5-16-2-12v-28l4-18 6-15 8-13 12-15h2l1-3 13-10 16-8zm20 52-10 3-12 7-10 10-7 14-2 8v13l3 12 6 11 9 10 11 7 9 3 7 1h8l14-3 12-7 9-9 7-12 3-11v-16l-3-10-6-11-8-9-11-7-13-4z" fill="#3D4DB4"/>
<path transform="translate(1384,1552)" d="m0 0h31l17 4 16 7 13 9 10 9 9 9 9 13 8 16 4 15 1 6v24l-4 18-7 16-6 10-8 10-11 12-14 10-16 8-19 5-9 1h-15l-18-3-15-5-13-7-12-9-15-15-9-13-8-16-4-14-2-15v-11l2-14 6-18 9-16 11-13 11-11 14-10 15-7 14-4zm12 53-10 2-10 4-10 8-7 8-5 10-3 13 1 13 4 10 6 9 8 8 10 6 9 3 6 1h11l12-3 12-7 9-9 6-10 3-9 1-13-2-10-4-9-6-8-8-8-14-7-11-2z" fill="#3D4DB4"/>
<path transform="translate(468,1551)" d="m0 0h18l14 2 16 5 15 8 13 10 14 14 7 10 9 17 4 14 1 6v29l-4 17-6 14-7 11-12 15-8 7-12 9-16 8-14 4-10 2h-22l-20-4-17-7-11-7-11-9-10-10-8-11-8-14-5-15-3-17v-14l2-14 5-16 9-16 10-13 12-12 14-10 17-8 15-4zm2 54-13 4-11 7-9 10-6 12-2 9v12l3 10 7 12 7 7 13 8 11 3h15l11-3 10-6 9-8 6-8 4-10 1-5v-15l-3-10-6-10-7-8-11-7-13-4z" fill="#DB332F"/>
<path transform="translate(1815,1552)" d="m0 0h31l17 4 16 6 10 5 1 1 1 60-3 1-16-9-19-9-14-4-7-1h-9l-11 3-10 5-10 9-7 11-3 11v14l4 14 7 11 9 8 11 5 8 2h10l12-3 16-7 14-8 12-8 3-3h2v64l-5 4-21 9-17 5-15 2h-13l-14-2-18-6-11-6-12-9-14-14-10-14-7-15-4-13-2-16v-10l3-21 6-18 8-14 7-9 8-9 14-11 15-8 16-5z" fill="#3D4DB4"/>
<path transform="translate(1962,1552)" d="m0 0h25l16 5 15 8 16 11 10 8-1 4-10 9-8 7-15 13-4 1-15-10-9-4-10-1-8 2-2 1v6l8 6 17 8 21 10 16 12 7 7 7 12 3 9 1 5v18l-3 12-7 13-9 10-9 8-16 8-11 3-8 1h-13l-15-3-14-6-11-8-10-9-10-11-6-8 1-3 30-15 11-5 4 2 10 8 10 5 4 1h7l9-3 5-5 1-4-4-6-10-6-15-7-21-10-13-9-10-10-7-14-2-7v-20l4-13 7-12 5-6 13-10 14-6z" fill="#3D4DB4"/>
<path transform="translate(70,1551)" d="m0 0h15l14 3 11 5 13 7 17 12 7 6-2 4-14 13-8 7-10 9h-5l-10-7-12-6-4-1h-11l-6 3-1 4 5 5 16 8 25 12 13 9 6 5 8 10 5 10 3 11v19l-4 13-6 11-11 12-10 8-13 6-15 4h-20l-15-4-16-8-11-9-10-10-11-14 1-3 29-14 11-6 5 2 8 7 11 6 4 1h10l9-4 3-3 1-5-3-5-13-8-25-11-16-9-11-9-7-9-5-10-2-9v-18l4-14 6-10 9-10 10-7 10-5 11-3z" fill="#DB332F"/>
<path transform="translate(1538,1457)" d="m0 0h54l1 1v290l-2 1h-52l-1-1z" fill="#3F4FB5"/>
<path transform="translate(1015,580)" d="m0 0h3l-1 5-8 14-8 16-2 5 8-7 16-13 16-11 16-8 10-1 6 3 5 6v17l-2 10 16-13 18-13 14-8 7-2 10 1 5 4 3 5v16l-6 18-12 24-9 17-4 11 1 6 7-1 10-6 20-16 5-2 1 2-4 13-5 5-12 10-15 10-14 8-8 3-11 1-9-3-5-6-2-6 1-13 6-18 14-29 8-17 2-6-9 2-13 9-14 12-7 8-7 14-10 23-10 22-5 2-28 5h-6l1-6 9-20 15-35 10-25 3-11-9 3-17 13-13 11-7 8-6 12-8 24-5 18-8 3-21 5h-5v-9l5-28 7-24 8-18 11-20 9-14 5-7 9-3z" fill="#FDFDFD"/>
<path transform="translate(720,580)" d="m0 0 11 2 8 7 3 6 4-1 16-8 14-6h6l-1 6-12 25-13 26-7 16-5 15v8l3 3 9-2 9-6 14-11 7-4-1 9-3 9-14 11-18 13-14 8-10 3-9-1-5-3-4-4-2-7v-15l1-7-18 18-15 11-12 6-9 2-10-1-6-3-5-5-4-6-2-8v-17l4-16 8-16 9-13 20-20 16-11 16-8 12-4z" fill="#FEFEFE"/>
<path transform="translate(1243,580)" d="m0 0 3 1-8 17-8 15-4 9 8-6 7-7 16-12 15-10 11-5 6-2 10 1 7 6 2 4v9l-6 18-12 23-12 21-6 14 1 5 1 1h6l11-6 13-11 10-8h2v7l-3 8-5 6-13 10-15 10-16 8-6 2-12 1-8-3-5-5-3-8 1-12 6-17 12-22 13-24 3-9-10 4-14 11-15 14-7 6-7 10-7 20-6 24-4 4-26 6h-5v-9l5-28 6-20 8-20 11-21 13-20 4-3 24-5z" fill="#FEFEFE"/>
<path transform="translate(1642,1556)" d="m0 0h52l1 1v191l-2 1h-51l-1-1v-191z" fill="#3C4CB4"/>
<path transform="translate(870,580)" d="m0 0h4l-1 5-18 35-10 19-7 15-5 15-1 9 3 7 5 3 7-1 8-4 9-7 10-9-1-12v-16l4-16 8-16 7-9 12-12 10-5 7-1 5 3 2 2v12l-5 16-10 21-9 14-12 16 2 4 5 2h8l14-7 8-6h3l-2 9-3 8-10 6-11 4h-10l-10-4-3-2-4 1-7 7-13 10-17 9-10 3h-19l-10-5-5-6-3-12 1-17 5-17 6-15 10-19 11-21 6-8 28-6z" fill="#FEFEFE"/>
<path transform="translate(1663,1471)" d="m0 0h9l11 3 9 6 8 9 4 9 1 4v12l-3 10-6 9-9 8-10 4-5 1h-8l-9-2-9-5-6-5-6-9-3-7-1-5v-9l3-10 6-10 8-7 11-5z" fill="#3E4EB5"/>
<path transform="translate(794,1868)" d="m0 0h13l3 7 14 56 1 1 14-52 3-11 1-1h16l3 8 14 55 1 1 11-41 6-22 1-1h13l-1 8-19 72-2 6h-17l-16-61-2-7-12 45-6 23h-17l-7-25-14-55z" fill="#12141A"/>
<path transform="translate(1119,1836)" d="m0 0 13 1 1 1v26l-1 14 5-5 9-6 9-3h10l8 2 5 3 5 5 4 6 2 6 1 7v61h-14l-1-62-2-7-5-6-5-2h-13l-8 4-6 8-2 6-1 38-1 21h-13l-1-1v-116z" fill="#13151E"/>
<path transform="translate(387,1864)" d="m0 0h13l12 3 8 6 4 5 4 8 2 9v59h-14v-13l-10 8-12 5h-16l-10-5-8-9-2-6v-14l4-9 8-7 7-3 14-2h25l-2-10-5-8-9-4h-16l-12 3-4 2h-4v-9l3-3 10-4zm3 47-9 2-6 4-3 5v9l4 7 8 4h12l9-4 7-7 3-6 1-5v-9z" fill="#111318"/>
<path transform="translate(627,1864)" d="m0 0h13l12 3 8 6 5 6 5 11 2 13v7l-7 1h-58l2 11 5 10 6 5 6 3 5 1h12l15-3 10-3 1 2-1 9-8 4-13 4h-20l-12-4-10-7-6-7-5-10-2-8v-18l4-13 5-8 5-6 9-6zm-1 12-10 5-6 7-3 7v4h51l-1-7-4-8-7-6-5-2z" fill="#12141A"/>
<path transform="translate(267,1864)" d="m0 0h12l10 2 10 6 6 7 5 13 2 17-1 1-7 1h-49l-9-1 3 13 5 9 7 6 10 3h11l16-3 9-3 1 1v9l-8 5-14 4h-19l-12-4-9-6-8-9-5-12-1-4v-20l4-13 7-10 7-6 8-4zm-2 12-8 4-5 5-4 7-2 6 1 1h51l-2-9-5-8-7-5-4-1z" fill="#12141A"/>
<path transform="translate(718,593)" d="m0 0 7 1 4 6v9l-5 16-8 16-8 13-9 11-4 5-10 7-7 3-8-1-4-5-1-9 3-12 7-16 9-15 10-13 10-10 6-4z" fill="#3C4CB4"/>
<path transform="translate(1483,1864)" d="m0 0h15l13 3 6 4 1 1 1 11-9-3-11-3h-16l-8 4-3 5 1 8 5 4 13 4 17 5 9 6 5 8 1 10-3 9-6 7-10 5-7 2h-22l-17-4-1-1v-14l5 1 13 4 7 1h13l8-3 4-4v-9l-5-5-14-4-16-5-8-5-4-5-2-6v-11l3-8 7-7 9-4z" fill="#12141C"/>
<path transform="translate(508,1864)" d="m0 0h14l10 2 9 4 2 2 1 10-2 1-13-5-5-1h-16l-8 4-3 5 1 8 5 4 32 10 8 6 4 7 1 9-2 8-7 9-10 5-7 2h-22l-17-4-1-1v-14l5 1 13 4 7 1h13l8-3 4-5v-8l-5-5-28-8-8-4-6-7-2-6v-11l3-8 4-5 12-6z" fill="#13141B"/>
<path transform="translate(1682,1864)" d="m0 0h15l10 2 10 5 2 9-1 3-6-2-13-4h-16l-8 4-3 4v7l4 5 10 4 19 5 9 5 5 5 3 6v13l-5 8-5 5-8 4-7 2h-22l-18-4v-15l5 1 13 4 7 1h12l9-3 3-3 1-9-3-5-16-5-17-5-6-4-6-7-1-3v-15l4-8 7-6 8-3z" fill="#121419"/>
<path transform="translate(1029,1844)" d="m0 0h13l1 1v23h29v11h-29l1 57 1 3 7 2 19 1 1 1v11h-25l-11-5-4-5-3-9v-55l-10-1-1-1v-7l2-3 8-1v-22z" fill="#12141B"/>
<path transform="translate(1573,1844)" d="m0 0h13l1 1v23h29v11l-28 1v54l2 5 7 2 18 1 1 1v11h-24l-12-5-4-5-3-10-1-54-9-1v-10l1-1h9z" fill="#111215"/>
<path transform="translate(1323,1836)" d="m0 0h12l2 2-1 116h-13l-1-115z" fill="#121315"/>
<path transform="translate(958,1868)" d="m0 0h14l1 7-1 79h-14z" fill="#14161F"/>
<path transform="translate(1393,1868)" d="m0 0h14v86h-14z" fill="#101114"/>
<path transform="translate(959,1836)" d="m0 0 13 1 1 5-1 14h-12l-2-1v-18z" fill="#151827"/>
<path transform="translate(1394,1836)" d="m0 0 13 1v19h-13l-1-1v-18z" fill="#12141A"/>
</svg>
